<svg xmlns="http://www.w3.org/2000/svg" width="512" height="512" viewBox="0 0 512 512">
  <rect width="512" height="512" rx="64" fill="#FCFAF7"/>
  <g transform="translate(256,230)">
    <!-- Petals -->
    <ellipse cx="0" cy="-75" rx="42" ry="75" fill="#B8837E" opacity="0.9"/>
    <ellipse cx="0" cy="-75" rx="42" ry="75" fill="#B8837E" opacity="0.9" transform="rotate(60)"/>
    <ellipse cx="0" cy="-75" rx="42" ry="75" fill="#B8837E" opacity="0.9" transform="rotate(120)"/>
    <ellipse cx="0" cy="-75" rx="42" ry="75" fill="#B8837E" opacity="0.9" transform="rotate(180)"/>
    <ellipse cx="0" cy="-75" rx="42" ry="75" fill="#B8837E" opacity="0.9" transform="rotate(240)"/>
    <ellipse cx="0" cy="-75" rx="42" ry="75" fill="#B8837E" opacity="0.9" transform="rotate(300)"/>
    <!-- Center -->
    <circle cx="0" cy="0" r="38" fill="#5C3E35"/>
    <circle cx="0" cy="0" r="22" fill="#B8837E"/>
  </g>
  <!-- Stem -->
  <line x1="256" y1="305" x2="256" y2="410" stroke="#5C3E35" stroke-width="10" stroke-linecap="round"/>
  <!-- Leaves -->
  <ellipse cx="218" cy="370" rx="32" ry="16" fill="#86C7A3" transform="rotate(-30, 218, 370)"/>
  <ellipse cx="294" cy="385" rx="32" ry="16" fill="#86C7A3" transform="rotate(30, 294, 385)"/>
</svg>
