<svg xmlns="http://www.w3.org/2000/svg" width="192" height="192" viewBox="0 0 192 192">
  <rect width="192" height="192" rx="24" fill="#FCFAF7"/>
  <g transform="translate(96,88)">
    <!-- Petals -->
    <ellipse cx="0" cy="-28" rx="16" ry="28" fill="#B8837E" opacity="0.9"/>
    <ellipse cx="0" cy="-28" rx="16" ry="28" fill="#B8837E" opacity="0.9" transform="rotate(60)"/>
    <ellipse cx="0" cy="-28" rx="16" ry="28" fill="#B8837E" opacity="0.9" transform="rotate(120)"/>
    <ellipse cx="0" cy="-28" rx="16" ry="28" fill="#B8837E" opacity="0.9" transform="rotate(180)"/>
    <ellipse cx="0" cy="-28" rx="16" ry="28" fill="#B8837E" opacity="0.9" transform="rotate(240)"/>
    <ellipse cx="0" cy="-28" rx="16" ry="28" fill="#B8837E" opacity="0.9" transform="rotate(300)"/>
    <!-- Center -->
    <circle cx="0" cy="0" r="14" fill="#5C3E35"/>
    <circle cx="0" cy="0" r="8" fill="#B8837E"/>
  </g>
  <!-- Stem -->
  <line x1="96" y1="116" x2="96" y2="155" stroke="#5C3E35" stroke-width="4" stroke-linecap="round"/>
  <!-- Leaves -->
  <ellipse cx="82" cy="140" rx="12" ry="6" fill="#86C7A3" transform="rotate(-30, 82, 140)"/>
  <ellipse cx="110" cy="145" rx="12" ry="6" fill="#86C7A3" transform="rotate(30, 110, 145)"/>
</svg>
