<svg xmlns="http://www.w3.org/2000/svg" width="512" height="512" viewBox="0 0 512 512">
  <rect width="512" height="512" rx="64" fill="#FCFAF7" />
  <g transform="translate(256, 256) scale(0.453) translate(-1408, -786)" fill="#7C1D2E">
    <path d="M1358.88 1250.21 c-69.38 -7.98 -136.09 -32.74 -197.69 -73.27 -32.95 -21.49 -53.21 -37.86 -78.18 -63.44 -55.26 -56.48 -93.93 -122.79 -116.04 -198.92 -10.03 -34.59 -14.94 -62.62 -17.40 -99.05 -11.26 -168.22 68.76 -331.33 207.72 -423.22 46.46 -30.70 106.62 -56.48 155.74 -66.51 33.15 -6.96 52.60 -8.60 99.26 -8.60 47.68 0 73.06 3.07 111.74 13.30 73.47 19.44 146.53 61.60 202.20 116.45 145.92 144.07 183.16 361.82 93.12 544.58 -37.45 75.72 -95.57 141.41 -165.77 187.26 -24.15 15.76 -70.20 38.47 -97.21 48.30 -27.01 9.62 -64.06 18.62 -92.71 22.31 -24.97 3.27 -79.40 3.68 -104.78 0.82z m104.17 -44.82 c73.67 -12.07 132 -36.22 189.30 -78.38 116.04 -85.54 184.80 -233.92 173.13 -373.90 -8.80 -107.44 -51.37 -201.38 -123.61 -273.21 -71.63 -71.01 -154.72 -111.13 -252.95 -121.77 -27.01 -3.07 -81.04 -1.02 -111.53 4.09 -93.53 15.76 -183.37 67.53 -244.76 140.80 -54.44 65.28 -87.59 139.37 -99.05 222.46 -5.32 37.25 -3.27 103.55 3.89 137.73 19.03 89.64 59.55 163.52 123.20 225.53 36.63 35.61 65.28 56.07 107.24 76.95 48.50 23.94 88.61 35.20 152.47 42.57 20.26 2.25 59.35 0.82 82.68 -2.87z"/>
    <path d="M1261.06 987.65 c-12.89 -6.96 -16.78 -28.45 -8.39 -45.64 5.32 -10.85 35.81 -45.64 88.41 -100.69 l40.11 -41.75 -4.50 -6.34 c-19.65 -28.24 -41.95 -57.51 -47.48 -62.21 -5.93 -5.32 -8.60 -5.93 -25.79 -7.16 -23.13 -1.64 -30.90 -3.68 -42.98 -11.46 -11.26 -6.96 -31.31 -33.15 -59.55 -76.95 -29.47 -46.05 -32.95 -54.44 -25.58 -59.14 3.07 -1.84 4.50 -1.23 9 3.89 52.60 61.60 75.31 86.98 77.77 86.98 3.27 0 0.41 -4.09 -33.15 -48.71 -39.09 -51.98 -41.13 -55.46 -35.81 -58.73 4.71 -2.87 11.26 3.07 44.41 40.52 38.47 43.18 47.07 51.98 48.91 49.93 1.64 -1.43 2.25 -0.61 -39.70 -52.39 -18.21 -22.51 -33.77 -42.36 -34.38 -44.20 -1.64 -3.89 2.66 -9.21 7.37 -9.21 1.84 0 13.10 10.44 24.76 22.92 30.49 33.15 59.55 63.03 61.60 63.03 3.89 0 0.20 -5.12 -27.42 -38.07 -38.68 -46.05 -46.66 -56.69 -46.66 -61.80 0 -3.48 1.23 -4.50 5.73 -4.50 7.78 0 28.04 17.19 72.24 61.40 29.06 29.06 35 35.81 41.34 48.91 7.16 14.12 7.57 16.37 7.57 34.79 0 10.85 1.02 23.13 1.84 27.63 2.66 10.85 12.89 24.97 35.81 49.32 19.03 20.47 19.24 20.47 23.33 16.58 5.93 -5.32 6.75 -8.80 4.71 -21.69 -2.66 -16.99 0.61 -33.15 11.05 -54.23 25.99 -52.60 104.37 -119.52 155.53 -133.02 22.31 -5.73 54.23 -2.66 55.87 5.32 0.82 4.09 -7.16 13.92 -51.78 65.28 -18.01 20.87 -58.94 68.56 -90.66 106.01 l-57.92 67.94 4.09 5.73 c2.25 3.27 5.73 7.16 7.57 8.80 4.91 4.09 77.56 82.27 90.25 97 20.47 24.15 28.24 44.82 22.31 59.14 -8.60 20.67 -37.66 20.67 -60.58 0 -7.78 -6.96 -37.45 -46.46 -78.79 -104.58 -9 -12.69 -17.40 -23.13 -18.83 -23.13 -1.23 0 -9.41 9.82 -18.21 22.10 -66.31 91.27 -84.93 113.79 -99.87 120.95 -9.82 4.91 -26.20 5.53 -33.56 1.43z"/>
    <path d="M1071.96 984.99 c-5.32 -6.34 -19.44 -33.56 -28.04 -54.44 -30.70 -74.08 -37.86 -155.53 -20.47 -234.94 6.96 -32.74 24.35 -80.02 37.04 -102.12 14.53 -24.76 20.67 -32.95 24.97 -32.33 7.16 1.02 6.14 6.75 -4.71 24.76 -5.73 9.41 -14.33 26.20 -19.44 37.45 -47.89 108.06 -44.61 226.75 9 331.53 7.78 15.14 13.71 28.86 13.10 30.49 -1.64 4.09 -7.78 3.89 -11.46 -0.41z"/>
    <path d="M1732.17 985.80 c-0.61 -1.64 4.50 -13.30 11.26 -26.20 29.67 -56.69 45.23 -117.27 45.23 -177.23 0 -70.60 -18.42 -138.34 -53.21 -196.06 -11.05 -18.21 -12.07 -24.15 -4.71 -25.17 5.32 -0.82 11.87 8.19 26.81 36.43 27.63 52.39 45.43 124.22 45.43 183.57 0 38.47 -11.26 98.03 -25.79 137.12 -7.98 21.49 -25.17 56.48 -31.72 65.08 -4.50 5.53 -11.46 6.75 -13.30 2.46z"/>
    <path d="M1398.38 575.27 c-15.96 -13.10 -45.23 -44 -53.41 -55.87 -20.47 -29.88 -19.85 -58.12 1.64 -69.38 19.03 -10.23 48.50 2.05 63.24 25.99 2.25 3.68 2.46 3.68 5.73 -1.23 7.57 -11.46 26.81 -28.45 34.59 -30.49 21.49 -5.93 37.04 -0.61 44.20 15.55 9.82 22.10 -1.02 47.27 -38.07 89.43 -15.76 17.80 -37.04 36.02 -42.16 36.02 -2.05 0 -9.21 -4.50 -15.76 -10.03z"/>
  </g>
</svg>
